<svg width="44" height="26" viewBox="0 0 44 26" fill="none" xmlns="http://www.w3.org/2000/svg">
<path d="M2.91667 25.4537C2.70062 25.4537 2.36574 25.4213 1.91204 25.3565C1.56636 24.9892 1.25309 24.4923 0.972222 23.8657C0.712963 23.2176 0.507716 22.537 0.356481 21.8241C0.226852 21.0895 0.162037 20.3657 0.162037 19.6528C0.183642 18.9182 0.313272 18.2701 0.550926 17.7083C0.550926 17.6867 0.648148 17.4275 0.842593 16.9306C1.05864 16.4336 1.3287 15.8071 1.65278 15.0509C1.97685 14.2731 2.34414 13.4198 2.75463 12.4907C3.16512 11.5401 3.57562 10.6111 3.98611 9.7037C4.3966 8.7963 4.78549 7.97531 5.15278 7.24074C5.54167 6.48457 5.87654 5.90123 6.15741 5.49074C6.35185 5.18827 6.52469 4.89661 6.67593 4.61574C6.84877 4.33488 7.0108 4.07562 7.16204 3.83796C7.39969 3.44907 7.61574 3.09259 7.81019 2.76852C8.02623 2.42284 8.25309 2.12037 8.49074 1.86111C8.75 1.58025 9.03086 1.34259 9.33333 1.14815C9.6358 0.932099 10.0031 0.748457 10.4352 0.597223C10.6944 0.705247 10.9213 0.824075 11.1157 0.953704C11.3102 1.06173 11.483 1.20216 11.6343 1.375L11.7315 1.8287C11.7747 1.97994 11.8395 2.08796 11.9259 2.15278C12.034 2.19599 12.1204 2.21759 12.1852 2.21759C12.466 2.28241 12.7037 2.35803 12.8981 2.44444C13.1142 2.50926 13.341 2.55247 13.5787 2.57407C13.6651 2.7037 13.7407 2.83333 13.8056 2.96296C13.892 3.09259 13.9784 3.21142 14.0648 3.31944C14.4969 3.94599 14.8534 4.55093 15.1343 5.13426C15.4151 5.71759 15.4151 6.35494 15.1343 7.0463L15.1667 7.40278C15.2747 7.55401 15.3287 7.69444 15.3287 7.82407C15.3287 7.9537 15.3071 8.13735 15.2639 8.375C15.2423 8.54784 15.2207 8.74228 15.1991 8.95833C15.1991 9.15278 15.2315 9.36883 15.2963 9.60648L15.5231 9.86574C15.8688 10.0386 16.2037 10.125 16.5278 10.125C16.9599 10.125 17.3488 10.0278 17.6944 9.83333C18.0401 9.63889 18.3642 9.44444 18.6667 9.25C18.9043 9.07716 19.1204 8.93673 19.3148 8.8287C19.5309 8.72068 19.7361 8.64506 19.9306 8.60185C20.3843 8.16975 20.7948 7.79167 21.162 7.46759C21.5509 7.12191 21.9506 6.77623 22.3611 6.43056C23.1389 5.80401 23.8951 5.13426 24.6296 4.4213C25.3642 3.68673 25.9475 2.77932 26.3796 1.69907C26.6173 1.54784 26.8873 1.47222 27.1898 1.47222C27.4923 1.47222 27.7948 1.53704 28.0972 1.66667C28.3997 1.77469 28.7022 1.90432 29.0046 2.05556C29.0694 2.09877 29.1235 2.13117 29.1667 2.15278C29.2315 2.17438 29.2963 2.20679 29.3611 2.25C29.3611 2.48765 29.4583 2.7037 29.6528 2.89815C29.7608 2.98457 29.8364 3.03858 29.8796 3.06019C29.9228 3.08179 29.966 3.1034 30.0093 3.125C30.1821 3.23303 30.3225 3.33025 30.4306 3.41667C30.5602 3.50309 30.6574 3.62191 30.7222 3.77315C30.9167 4.35648 31.2407 4.81019 31.6944 5.13426C31.6512 5.37191 31.662 5.60957 31.7269 5.84722C31.7917 6.06327 31.8673 6.27932 31.9537 6.49537C31.9969 6.58179 32.0293 6.66821 32.0509 6.75463C32.0725 6.81944 32.1049 6.90586 32.1481 7.01389L31.4352 6.94907L31.5324 7.66204C31.5972 8.02932 31.5648 8.43982 31.4352 8.89352C31.3272 9.34722 31.1975 9.7037 31.0463 9.96296C31.0895 10.6111 31.1111 11.1296 31.1111 11.5185C31.1111 11.8858 31.0895 12.2315 31.0463 12.5556C31.0031 12.8796 30.9275 13.1929 30.8194 13.4954C30.733 13.7762 30.6142 14.0787 30.463 14.4028C30.5494 16.0448 30.3549 17.5463 29.8796 18.9074C29.4259 20.2685 28.929 21.5432 28.3889 22.7315C28.3241 22.8827 28.2593 23.0231 28.1944 23.1528C28.1296 23.2824 28.0756 23.412 28.0324 23.5417C27.7948 23.6065 27.5787 23.6821 27.3843 23.7685C27.1898 23.8549 27.0062 23.9522 26.8333 24.0602C26.5957 24.2114 26.358 24.341 26.1204 24.4491C25.8827 24.5355 25.6343 24.5787 25.375 24.5787C24.338 23.8225 23.7978 22.5154 23.7546 20.6574C23.733 18.7994 24.1327 16.4336 24.9537 13.5602C25.1049 13.4522 25.1698 13.2901 25.1481 13.0741V12.7176L24.8241 12.6852C24.716 12.6852 24.6188 12.696 24.5324 12.7176C24.446 12.7392 24.3812 12.8364 24.338 13.0093C23.6466 13.5062 22.8904 14.0247 22.0694 14.5648C21.2701 15.0833 20.4383 15.5694 19.5741 16.0231C18.7099 16.4552 17.8241 16.8225 16.9167 17.125C16.0309 17.4059 15.1667 17.5463 14.3241 17.5463C12.1636 17.5463 10.5324 16.4444 9.43056 14.2407L9.13889 13.6574L8.81481 14.1759C8.75 14.284 8.63117 14.5 8.45833 14.8241C8.3071 15.1265 8.14506 15.483 7.97222 15.8935C7.82099 16.304 7.68056 16.7253 7.55093 17.1574C7.4429 17.5895 7.41049 17.9676 7.4537 18.2917C7.19444 18.5293 6.93519 18.7994 6.67593 19.1019C6.43827 19.4043 6.26543 19.75 6.15741 20.1389C6.1142 20.2469 6.10339 20.3549 6.125 20.463C6.1466 20.5494 6.17901 20.6466 6.22222 20.7546C6.20062 20.9059 6.15741 21.0139 6.09259 21.0787C6.02778 21.1435 5.95216 21.2083 5.86574 21.2731C5.75772 21.3812 5.64969 21.5 5.54167 21.6296C5.43364 21.7377 5.33642 21.8673 5.25 22.0185C5.20679 22.1481 5.17438 22.2886 5.15278 22.4398C5.13117 22.5694 5.10957 22.6883 5.08796 22.7963C5.08796 23.034 5.05556 23.196 4.99074 23.2824C4.77469 23.7361 4.58025 24.1142 4.40741 24.4167C4.25617 24.6975 4.10494 24.9136 3.9537 25.0648C3.80247 25.216 3.64043 25.3133 3.46759 25.3565C3.31636 25.4213 3.13272 25.4537 2.91667 25.4537ZM27.3557 25.3565C26.7292 25.2052 26.2431 24.9568 25.8974 24.6111C25.5733 24.2438 25.3249 23.8225 25.152 23.3472C25.0008 22.8503 24.8928 22.3102 24.828 21.7269C24.7848 21.1435 24.7307 20.5386 24.6659 19.912C24.7523 19.6312 24.8604 19.3935 24.99 19.1991C25.1412 19.0046 25.206 18.7346 25.1844 18.3889C25.4221 17.6975 25.6381 17.0278 25.8326 16.3796C26.027 15.7315 26.1567 15.0617 26.2215 14.3704C26.3511 14.1759 26.4807 14.0463 26.6104 13.9815C26.7832 12.75 26.8048 11.4861 26.6752 10.1898C26.5456 8.89352 26.3295 7.69444 26.027 6.59259C26.0486 6.35494 26.081 6.1821 26.1243 6.07407C26.1675 5.94444 26.1675 5.83642 26.1243 5.75C26.081 5.55556 26.1459 5.45833 26.3187 5.45833C26.4915 5.45833 26.6644 5.45833 26.8372 5.45833C26.8372 5.06944 26.7616 4.69136 26.6104 4.32407C26.4807 3.93519 26.3511 3.49228 26.2215 2.99537C26.3943 2.60648 26.5131 2.2284 26.578 1.86111C26.6428 1.49383 26.7616 1.15895 26.9344 0.856482C27.6258 1.07253 28.3064 1.32099 28.9761 1.60185C29.6459 1.88272 30.3048 2.16358 30.953 2.44444C31.6011 2.7037 32.2385 2.96296 32.865 3.22222C33.4915 3.45988 34.1073 3.65432 34.7122 3.80556C35.6412 4.47531 36.5919 5.14506 37.5641 5.81482C38.5579 6.46296 39.4545 7.18673 40.2539 7.98611C41.0749 8.76389 41.7554 9.66049 42.2956 10.6759C42.8357 11.6914 43.1489 12.8904 43.2354 14.2731C43.1922 14.4028 43.1598 14.5108 43.1381 14.5972C43.1165 14.6836 43.0949 14.7701 43.0733 14.8565C43.0517 14.9429 43.0409 15.0401 43.0409 15.1481C43.0409 15.2562 43.0409 15.4074 43.0409 15.6019C42.2631 16.963 41.2801 18.108 40.0919 19.037C38.9036 19.966 37.6073 20.787 36.203 21.5C34.7986 22.213 33.3295 22.8719 31.7956 23.4769C30.2832 24.0602 28.8033 24.6867 27.3557 25.3565ZM30.5317 6.98148C30.3372 6.98148 30.1968 7.02469 30.1104 7.11111C30.3696 8.08333 30.5641 9.00154 30.6937 9.86574C30.8233 10.7299 30.8881 11.5941 30.8881 12.4583C30.9098 13.3225 30.8665 14.2083 30.7585 15.1157C30.6505 16.0231 30.4993 17.0062 30.3048 18.0648C30.5857 18.0432 30.8341 17.9892 31.0502 17.9028C31.2662 17.8164 31.4823 17.7191 31.6983 17.6111C31.936 17.5031 32.1736 17.4059 32.4113 17.3194C32.6706 17.233 32.9622 17.179 33.2863 17.1574C33.3727 16.9846 33.4807 16.8549 33.6104 16.7685C33.7616 16.6605 33.8912 16.5525 33.9993 16.4444C34.5394 16.2284 35.0795 16.0015 35.6196 15.7639C36.1598 15.5262 36.6567 15.2562 37.1104 14.9537C37.5641 14.6512 37.9746 14.3056 38.3419 13.9167C38.7091 13.5278 39.0116 13.0633 39.2493 12.5231C39.0764 12.1991 38.8604 11.929 38.6011 11.713C38.3635 11.4753 38.1042 11.2485 37.8233 11.0324C37.5641 10.7948 37.3048 10.5571 37.0456 10.3194C36.8079 10.0602 36.6135 9.76852 36.4622 9.44444C36.1165 9.40123 35.8141 9.31482 35.5548 9.18519C35.2956 9.03395 35.0471 8.89352 34.8094 8.76389C34.5718 8.61265 34.3125 8.47222 34.0317 8.34259C33.7724 8.21296 33.4591 8.13735 33.0919 8.11574C32.5301 7.81327 32.0224 7.60803 31.5687 7.5C31.115 7.37037 30.7693 7.19753 30.5317 6.98148Z" fill="white"/>
</svg>
